<svg width="327" height="324" viewBox="0 0 327 324" fill="none" xmlns="http://www.w3.org/2000/svg">
<rect y="6" width="319" height="318" rx="45" fill="#7A67E1"/>
<path d="M273.979 127.23L294.356 152.003C298.699 157.284 301.934 161.218 304.17 164.532C306.403 167.842 307.605 170.487 307.925 173.181C308.356 176.798 307.732 180.463 306.132 183.725C304.94 186.155 302.934 188.239 299.737 190.6C296.535 192.965 292.187 195.574 286.35 199.076L257.329 216.487C246.586 222.932 238.541 227.759 232.637 231.018C229.685 232.648 227.278 233.88 225.343 234.726C223.399 235.576 221.973 236.015 220.969 236.096C208.723 237.075 199.007 225.813 201.58 213.622C201.791 212.623 202.408 211.246 203.495 209.401C204.576 207.567 206.097 205.308 208.079 202.553C212.042 197.043 217.818 189.587 225.531 179.63L225.568 179.582C227.617 176.936 228.683 175.561 229.461 174.109C231.597 170.128 232.31 165.521 231.482 161.069C231.179 159.445 230.572 157.779 229.403 154.574L229.381 154.515C223.252 137.711 218.661 125.124 215.77 116.028C214.325 111.48 213.31 107.82 212.739 104.95C212.165 102.062 212.057 100.042 212.368 98.739C214.83 88.4045 225.298 82.2471 235.354 85.2173C236.624 85.5922 238.285 86.6786 240.442 88.5895C242.586 90.4892 245.173 93.1595 248.293 96.6351C254.531 103.586 262.86 113.712 273.979 127.23Z" fill="white" stroke="black"/>
<path d="M223.39 161.775H92.1264M223.39 161.775V203.662C223.39 207.365 222.007 210.916 219.545 213.535C217.084 216.153 213.745 217.624 210.264 217.624H105.253C101.771 217.624 98.4327 216.153 95.971 213.535C93.5093 210.916 92.1264 207.365 92.1264 203.662V161.775M223.39 161.775L200.747 113.674C199.66 111.348 197.985 109.39 195.91 108.021C193.834 106.652 191.441 105.926 188.999 105.925H126.517C124.075 105.926 121.682 106.652 119.607 108.021C117.531 109.39 115.856 111.348 114.769 113.674L92.1264 161.775M118.379 189.7H118.445M144.632 189.7H144.697" stroke="#B3B3B3" stroke-width="4" stroke-linecap="round" stroke-linejoin="round"/>
<path d="M141 142.455C141 147.977 136.523 152.455 131 152.455C125.477 152.455 121 147.977 121 142.455C121 136.932 125.477 142.455 131 142.455C136.523 142.455 141 136.932 141 142.455Z" fill="#D9D9D9"/>
<circle cx="168" cy="146" r="10" fill="#3522A3"/>
<path d="M92 162H223V203C223 211.284 216.284 218 208 218H107C98.7157 218 92 211.284 92 203V162Z" fill="#D9D9D9"/>
<path d="M80.5967 172.155L80.091 174.351L80.0864 174.371C79.839 175.446 79.7104 176.005 79.6211 176.513C78.2095 184.55 81.8872 192.678 88.8489 196.906C89.2892 197.174 89.793 197.445 90.7624 197.966L90.7808 197.976L90.7814 197.976C95.1963 200.35 98.5053 202.128 100.825 203.394C103.161 204.668 104.461 205.405 104.889 205.704C121.031 216.982 111.173 242.42 91.85 239.351C91.3373 239.269 89.8961 238.897 87.34 238.192C84.8028 237.492 81.2019 236.475 76.3983 235.119L76.388 235.116L32.6843 222.774C28.7433 221.661 25.8061 220.832 23.5301 220.059C21.2545 219.287 19.6748 218.583 18.4384 217.735C11.8164 213.19 8.79825 204.88 10.9614 197.149C11.3653 195.705 12.1253 194.153 13.3753 192.101C14.6256 190.05 16.3464 187.53 18.6554 184.15L39.5944 153.496C44.5698 146.212 48.2957 140.758 51.0842 136.892C52.4783 134.96 53.6333 133.431 54.5894 132.274C55.5509 131.109 56.291 130.345 56.8552 129.919C68.3468 121.25 84.9116 128.788 86.2645 143.302C86.3309 144.015 86.2679 145.087 86.0608 146.595C85.8549 148.094 85.5115 149.992 85.0331 152.341C84.0763 157.04 82.5864 163.512 80.5967 172.155Z" fill="white" stroke="black"/>
<path d="M132.175 197.687C129.741 190.957 135.763 184.219 142.723 185.887L163.551 190.877C167.345 191.786 167.983 196.914 164.527 198.724V198.724C164.177 198.907 163.804 199.04 163.418 199.12L142.439 203.434C138.065 204.333 133.694 201.886 132.175 197.687V197.687Z" fill="#B3B3B3"/>
<path d="M140.738 131.566L100.342 121.865V121.865C100.961 110.698 113.34 104.295 122.812 110.242L142.839 122.815L140.738 131.566Z" fill="#B3B3B3"/>
<path d="M157.749 130.508L199.031 125.846V125.846C199.789 114.687 188.292 106.811 178.16 111.548L156.739 121.564L157.749 130.508Z" fill="#B3B3B3"/>
</svg>
