<svg width="318" height="305" viewBox="0 0 318 305" fill="none" xmlns="http://www.w3.org/2000/svg">
<path d="M264.979 127.23L285.356 152.003C289.699 157.284 292.934 161.218 295.17 164.532C297.403 167.842 298.605 170.487 298.925 173.181C299.356 176.798 298.732 180.463 297.132 183.725C295.94 186.155 293.934 188.239 290.737 190.6C287.535 192.965 283.187 195.574 277.35 199.076L248.329 216.487C237.586 222.932 229.541 227.759 223.637 231.018C220.685 232.648 218.278 233.88 216.343 234.726C214.399 235.576 212.973 236.015 211.969 236.096C199.723 237.075 190.007 225.813 192.58 213.622C192.791 212.623 193.408 211.246 194.495 209.401C195.576 207.567 197.097 205.308 199.079 202.553C203.042 197.043 208.818 189.587 216.531 179.63L216.568 179.582C218.617 176.936 219.683 175.561 220.461 174.109C222.597 170.128 223.31 165.521 222.482 161.069C222.179 159.445 221.572 157.779 220.403 154.574L220.381 154.515C214.252 137.711 209.661 125.124 206.77 116.028C205.325 111.48 204.31 107.82 203.739 104.95C203.165 102.062 203.057 100.042 203.368 98.739C205.83 88.4045 216.298 82.2471 226.354 85.2173C227.624 85.5922 229.285 86.6786 231.442 88.5895C233.586 90.4892 236.173 93.1595 239.293 96.6351C245.531 103.586 253.86 113.712 264.979 127.23Z" fill="white" stroke="black"/>
<path d="M214.39 161.775H83.1264M214.39 161.775V203.662C214.39 207.365 213.007 210.916 210.545 213.535C208.084 216.153 204.745 217.624 201.264 217.624H96.2527C92.7714 217.624 89.4327 216.153 86.971 213.535C84.5093 210.916 83.1264 207.365 83.1264 203.662V161.775M214.39 161.775L191.747 113.674C190.66 111.348 188.985 109.39 186.91 108.021C184.834 106.652 182.441 105.926 179.999 105.925H117.517C115.075 105.926 112.682 106.652 110.607 108.021C108.531 109.39 106.856 111.348 105.769 113.674L83.1264 161.775M109.379 189.7H109.445M135.632 189.7H135.697" stroke="#B3B3B3" stroke-width="4" stroke-linecap="round" stroke-linejoin="round"/>
<path d="M132 142.455C132 147.977 127.523 152.455 122 152.455C116.477 152.455 112 147.977 112 142.455C112 136.932 116.477 142.455 122 142.455C127.523 142.455 132 136.932 132 142.455Z" fill="#D9D9D9"/>
<circle cx="159" cy="146" r="10" fill="#3522A3"/>
<path d="M83 162H214V203C214 211.284 207.284 218 199 218H98C89.7157 218 83 211.284 83 203V162Z" fill="#D9D9D9"/>
<path d="M71.5967 172.155L71.091 174.351L71.0864 174.371C70.839 175.446 70.7104 176.005 70.6211 176.513C69.2095 184.55 72.8872 192.678 79.8489 196.906C80.2892 197.174 80.793 197.445 81.7624 197.966L81.7808 197.976L81.7814 197.976C86.1963 200.35 89.5053 202.128 91.8251 203.394C94.1606 204.668 95.4607 205.405 95.889 205.704C112.031 216.982 102.173 242.42 82.85 239.351C82.3373 239.269 80.8961 238.897 78.34 238.192C75.8028 237.492 72.2019 236.475 67.3983 235.119L67.388 235.116L23.6843 222.774C19.7433 221.661 16.8061 220.832 14.5301 220.059C12.2545 219.287 10.6748 218.583 9.43844 217.735C2.81643 213.19 -0.201751 204.88 1.96141 197.149C2.3653 195.705 3.1253 194.153 4.37534 192.101C5.62558 190.05 7.34638 187.53 9.65535 184.15L30.5944 153.496C35.5698 146.212 39.2957 140.758 42.0842 136.892C43.4783 134.96 44.6333 133.431 45.5894 132.274C46.5509 131.109 47.291 130.345 47.8552 129.919C59.3468 121.25 75.9116 128.788 77.2645 143.302C77.3309 144.015 77.2679 145.087 77.0608 146.595C76.8549 148.094 76.5115 149.992 76.0331 152.341C75.0763 157.04 73.5864 163.512 71.5967 172.155Z" fill="white" stroke="black"/>
<path d="M123.175 197.687C120.741 190.957 126.763 184.219 133.723 185.887L154.551 190.877C158.345 191.786 158.983 196.914 155.527 198.724C155.177 198.907 154.804 199.04 154.418 199.12L133.439 203.434C129.065 204.333 124.694 201.886 123.175 197.687Z" fill="#B3B3B3"/>
<path d="M131.738 131.566L91.3417 121.865C91.9611 110.698 104.34 104.295 113.812 110.242L133.839 122.815L131.738 131.566Z" fill="#B3B3B3"/>
<path d="M148.749 130.508L190.031 125.846C190.789 114.687 179.292 106.811 169.16 111.548L147.739 121.564L148.749 130.508Z" fill="#B3B3B3"/>
</svg>
